<svg id="Layer_1" version="1.1" viewBox="0 0 64 64" xml:space="preserve" xmlns="http://www.w3.org/2000/svg" enable-background="new 0 0 64 64"><path d="M32 4C16.561 4 4 16.561 4 32s12.561 28 28 28 28-12.561 28-28S47.439 4 32 4zm0 54C17.664 58 6 46.336 6 32S17.664 6 32 6s26 11.664 26 26-11.664 26-26 26z" fill="#720099" class="fill-000000"></path><path d="M26.5 25a4.004 4.004 0 0 0-3.236-3.923l.011-.039-7-2-.55 1.923 4.023 1.149A3.984 3.984 0 0 0 18.5 25c0 2.206 1.794 4 4 4s4-1.794 4-4zm-6 0c0-1.103.897-2 2-2s2 .897 2 2-.897 2-2 2-2-.897-2-2zM21 41h22v2H21zM47.725 19.039l-7 2 .011.039A4.002 4.002 0 0 0 37.5 25c0 2.206 1.794 4 4 4s4-1.794 4-4a3.98 3.98 0 0 0-1.248-2.889l4.023-1.149-.55-1.923zM41.5 27c-1.103 0-2-.897-2-2s.897-2 2-2 2 .897 2 2-.897 2-2 2z" fill="#720099" class="fill-000000"></path></svg>