<svg id="Layer_1" version="1.1" viewBox="0 0 64 64" xml:space="preserve" xmlns="http://www.w3.org/2000/svg" enable-background="new 0 0 64 64"><path d="M32 4C16.561 4 4 16.561 4 32s12.561 28 28 28 28-12.561 28-28S47.439 4 32 4zm0 54C17.664 58 6 46.336 6 32S17.664 6 32 6s26 11.664 26 26-11.664 26-26 26z" fill="#888888" class="fill-000000"></path><path d="M32 39c-1.126 0-11 .14-11 5h2c0-2.042 5.371-2.998 9-3 3.63.002 9 .958 9 3h2c0-4.86-9.874-5-11-5zM25.293 28.707l1.414-1.414-2.793-2.793 2.793-2.793-1.414-1.414-2.793 2.793-2.793-2.793-1.414 1.414 2.793 2.793-2.793 2.793 1.414 1.414 2.793-2.793zM44.293 20.293 41.5 23.086l-2.793-2.793-1.414 1.414 2.793 2.793-2.793 2.793 1.414 1.414 2.793-2.793 2.793 2.793 1.414-1.414-2.793-2.793 2.793-2.793z" fill="#888888" class="fill-000000"></path></svg>