<svg id="Layer_1" version="1.1" viewBox="0 0 64 64" xml:space="preserve" xmlns="http://www.w3.org/2000/svg" enable-background="new 0 0 64 64"><path d="M22.5 29c2.206 0 4-1.794 4-4s-1.794-4-4-4-4 1.794-4 4 1.794 4 4 4zm0-6c1.103 0 2 .897 2 2s-.897 2-2 2-2-.897-2-2 .897-2 2-2zM41.5 29c2.206 0 4-1.794 4-4s-1.794-4-4-4-4 1.794-4 4 1.794 4 4 4zm0-6c1.103 0 2 .897 2 2s-.897 2-2 2-2-.897-2-2 .897-2 2-2z" fill="#888888" class="fill-000000"></path><path d="M32 60c15.439 0 28-12.561 28-28S47.439 4 32 4 4 16.561 4 32s12.561 28 28 28zm0-54c14.337 0 26 11.664 26 26S46.337 58 32 58 6 46.336 6 32 17.663 6 32 6z" fill="#888888" class="fill-000000"></path><path d="M21 44h2c0-2.042 5.371-2.998 9-3 3.629.002 9 .958 9 3h2c0-4.86-9.874-5-11-5s-11 .14-11 5z" fill="#888888" class="fill-000000"></path></svg>