<svg id="Layer_1" version="1.1" viewBox="0 0 64 64" xml:space="preserve" xmlns="http://www.w3.org/2000/svg" enable-background="new 0 0 64 64"><path d="M26 25c0-.4-.238-.762-.606-.919l-7-3-.788 1.838L22.461 25l-4.855 2.081.788 1.838 7-3A.999.999 0 0 0 26 25zM45.606 21.081l-7 3a.999.999 0 0 0 0 1.838l7 3 .788-1.838L41.539 25l4.855-2.081-.788-1.838z" fill="#720099" class="fill-000000"></path><path d="M32 4C16.561 4 4 16.561 4 32s12.561 28 28 28 28-12.561 28-28S47.439 4 32 4zm0 54C17.664 58 6 46.336 6 32S17.664 6 32 6s26 11.664 26 26-11.664 26-26 26z" fill="#720099" class="fill-000000"></path><path d="M36.5 38.75c-1.93 0-3.5 1.57-3.5 3.5 0 .551-.449 1-1 1s-1-.449-1-1c0-1.93-1.57-3.5-3.5-3.5s-3.5 1.57-3.5 3.5v.5h2v-.5c0-.827.673-1.5 1.5-1.5s1.5.673 1.5 1.5c0 1.654 1.346 3 3 3s3-1.346 3-3c0-.827.673-1.5 1.5-1.5s1.5.673 1.5 1.5v.5h2v-.5c0-1.93-1.57-3.5-3.5-3.5z" fill="#720099" class="fill-000000"></path></svg>